<?xml version="1.0" standalone="no"?>
<!DOCTYPE svg PUBLIC "-//W3C//DTD SVG 20010904//EN"
 "http://www.w3.org/TR/2001/REC-SVG-20010904/DTD/svg10.dtd">
<svg version="1.0" xmlns="http://www.w3.org/2000/svg"
 width="225.000000pt" height="225.000000pt" viewBox="0 0 225.000000 225.000000"
 preserveAspectRatio="xMidYMid meet">
<metadata>
Created by potrace 1.11, written by Peter Selinger 2001-2013
</metadata>
<g transform="translate(0.000000,225.000000) scale(0.100000,-0.100000)"
fill="#000000" stroke="none">
<path d="M237 2024 c-31 -10 -64 -30 -92 -59 -77 -76 -75 -54 -75 -840 0 -785
-2 -764 75 -840 77 -78 39 -75 980 -75 941 0 903 -3 980 75 77 76 75 55 75
840 0 785 2 764 -75 840 -78 78 -38 75 -984 74 -709 0 -843 -3 -884 -15z
m1163 -143 c14 -27 13 -94 -2 -109 -7 -7 -36 -12 -65 -12 -59 0 -73 14 -73 74
0 48 21 66 80 66 39 0 52 -4 60 -19z m278 7 c17 -17 15 -103 -2 -117 -8 -7
-37 -11 -68 -9 l-53 3 -3 53 c-2 31 2 60 9 68 14 17 100 19 117 2z m280 0 c17
-17 15 -103 -2 -117 -8 -7 -37 -11 -68 -9 l-53 3 -3 53 c-2 31 2 60 9 68 14
17 100 19 117 2z m80 -873 l-3 -605 -28 -27 -27 -28 -855 0 -855 0 -27 28 -28
27 -3 605 -2 605 915 0 915 0 -2 -605z"/>
<path d="M1040 1469 c-432 -43 -750 -460 -676 -887 9 -51 23 -109 31 -128 l14
-34 70 0 c39 0 71 3 71 8 0 4 -9 31 -20 60 -11 29 -20 57 -20 62 0 6 52 10
134 10 l134 0 7 -42 c16 -106 8 -98 86 -98 62 0 70 2 65 18 -2 9 -8 41 -11 70
l-7 52 207 0 207 0 -7 -53 c-3 -28 -9 -60 -11 -69 -5 -16 3 -18 65 -18 78 0
70 -8 86 98 l7 42 134 0 c82 0 134 -4 134 -10 0 -5 -9 -33 -20 -62 -11 -29
-20 -56 -20 -60 0 -5 32 -8 71 -8 l70 0 14 34 c8 19 22 77 31 128 27 158 4
312 -71 463 -146 292 -445 456 -775 424z m154 -188 c33 -47 84 -158 92 -198
l7 -33 -168 0 -167 0 6 33 c3 17 22 65 41 105 74 157 127 183 189 93z m-302
-4 c-6 -7 -27 -60 -46 -118 l-35 -104 -106 -3 c-118 -3 -115 -6 -58 65 40 49
119 111 187 147 54 29 74 33 58 13z m562 -35 c60 -36 165 -133 186 -172 11
-21 10 -21 -95 -18 l-106 3 -35 104 c-19 58 -40 111 -47 119 -19 23 28 6 97
-36z m-672 -407 c-2 -44 -5 -92 -8 -107 l-6 -28 -140 0 -141 0 7 60 c4 33 14
82 22 110 l15 51 127 -3 127 -3 -3 -80z m541 68 c3 -10 8 -60 12 -110 l7 -93
-217 0 -217 0 7 93 c10 141 -13 127 210 127 176 0 194 -2 198 -17z m411 -33
c8 -28 18 -77 22 -110 l7 -60 -141 0 c-125 0 -141 2 -146 18 -4 14 -10 172 -7
195 1 4 57 7 126 7 l124 0 15 -50z"/>
</g>
</svg>
